HIERARCHY
ROOT hip
{
	OFFSET 0.000000 0.000000 0.000000
	CHANNELS 6 Xposition Yposition Zposition Xrotation Zrotation Yrotation 
	JOINT abdomen
	{
		OFFSET 0.000000 3.422050 0.000000
		CHANNELS 3 Xrotation Zrotation Yrotation 
		JOINT chest
		{
			OFFSET 0.000000 8.486693 -0.684411
			CHANNELS 3 Xrotation Zrotation Yrotation 
			JOINT neck
			{
				OFFSET 0.000000 10.266162 -0.273764
				CHANNELS 3 Xrotation Zrotation Yrotation 
				JOINT head
				{
					OFFSET 0.000000 3.148285 0.000000
					CHANNELS 3 Xrotation Zrotation Yrotation 
					End Site
					{
						OFFSET 0.000000 3.148289 0.000000
					}
				}
			}
			JOINT lCollar
			{
				OFFSET 3.422053 6.707223 -0.821293
				CHANNELS 3 Yrotation Zrotation Xrotation 
				JOINT lShldr
				{
					OFFSET 3.285171 0.000000 0.000000
					CHANNELS 3 Zrotation Yrotation Xrotation 
					JOINT lForeArm
					{
						OFFSET 10.129278 0.000000 0.000000
						CHANNELS 3 Yrotation Zrotation Xrotation 
						JOINT lHand
						{
							OFFSET 8.486692 0.000000 0.000000
							CHANNELS 3 Zrotation Yrotation Xrotation 
							End Site
							{
								OFFSET 4.106464 0.000000 0.000000
							}
						}
					}
				}
			}
			JOINT rCollar
			{
				OFFSET -3.558935 6.707223 -0.821293
				CHANNELS 3 Yrotation Zrotation Xrotation 
				JOINT rShldr
				{
					OFFSET -3.148289 0.000000 0.000000
					CHANNELS 3 Zrotation Yrotation Xrotation 
					JOINT rForeArm
					{
						OFFSET -10.266159 0.000000 0.000000
						CHANNELS 3 Yrotation Zrotation Xrotation 
						JOINT rHand
						{
							OFFSET -8.349810 0.000000 0.000000
							CHANNELS 3 Zrotation Yrotation Xrotation 
							End Site
							{
								OFFSET -4.106464 0.000000 0.000000
							}
						}
					}
				}
			}
		}
	}
	JOINT lThigh
	{
		OFFSET 5.338403 -1.642589 1.368821
		CHANNELS 3 Xrotation Zrotation Yrotation 
		JOINT lShin
		{
			OFFSET -2.053232 -20.121670 0.000000
			CHANNELS 3 Xrotation Zrotation Yrotation 
			JOINT lFoot
			{
				OFFSET 0.000000 -19.300380 -1.231939
				CHANNELS 3 Xrotation Yrotation Zrotation 
				End Site
				{
					OFFSET 0.000000 -2.463878 4.653993
				}
			}
		}
	}
	JOINT rThigh
	{
		OFFSET -5.338403 -1.642589 1.368821
		CHANNELS 3 Xrotation Zrotation Yrotation 
		JOINT rShin
		{
			OFFSET 2.053232 -20.121670 0.000000
			CHANNELS 3 Xrotation Zrotation Yrotation 
			JOINT rFoot
			{
				OFFSET 0.000000 -19.300380 -1.231939
				CHANNELS 3 Xrotation Yrotation Zrotation 
				End Site
				{
					OFFSET 0.000000 -2.463878 4.653993
				}
			}
		}
	}
}
MOTION
Frames: 13
Frame Time: 0.033264
0.000000 43.528500 0.000000 0.000000 0.000000 0.000000 0.000000 0.000000 0.000000 0.000000 0.000000 0.000000 0.000000 0.000000 0.000000 0.000000 0.000000 0.000000 0.000000 0.000000 0.000000 0.000000 0.000000 0.000000 0.000000 0.000000 0.000000 0.000000 0.000000 0.000000 0.000000 0.000000 0.000000 0.000000 0.000000 0.000000 0.000000 0.000000 0.000000 0.000000 0.000000 0.000000 0.000000 0.000000 0.000000 0.000000 0.000000 0.000000 0.000000 0.000000 0.000000 0.000000 0.000000 0.000000 0.000000 0.000000 0.000000 0.000000 0.000000 0.000000 
1.246552 7.937199 -0.045055 -48.026028 0.432040 -1.982361 23.081062 0.000000 0.000000 8.896189 3.350707 -2.632886 38.255474 1.007121 1.691153 12.899511 -11.355017 3.539174 -0.000049 11.002516 6.990519 -92.005486 29.999100 34.999729 -1.968575 3.536976 -52.797832 62.997868 -18.001196 -0.003769 -0.003271 -11.006244 6.990227 91.999397 -29.999727 34.998676 1.963897 -3.538548 -52.797932 -63.001530 17.998186 -0.002497 -38.471531 36.701859 8.696856 13.361038 9.559121 29.614597 31.233868 -14.929904 -24.358126 -84.727570 -22.302727 27.944258 101.511810 -7.381607 0.271053 23.943972 10.948182 25.684740 
1.246552 7.937199 -0.045055 -48.026028 0.432040 -1.982361 23.081062 0.000000 0.000000 8.896189 3.350707 -2.632886 38.016273 0.969025 1.945135 12.634336 -11.348897 3.532456 -0.000049 11.002516 6.990519 -92.005486 29.999100 34.999729 -1.968575 3.536976 -52.797832 62.997868 -18.001196 -0.003769 -0.003271 -11.006245 6.990227 91.999397 -29.999727 34.998676 1.963897 -3.538548 -52.797932 -63.001530 17.998186 -0.002497 -38.471531 36.701859 8.696856 13.361038 9.559121 29.614597 31.233868 -14.929904 -24.358126 -85.204193 -22.947809 27.730925 101.511810 -7.381607 0.271053 23.943972 10.948182 25.684740 
1.246552 7.937199 -0.045055 -48.026035 0.432040 -1.982361 23.081062 0.000000 0.000000 8.896189 3.350707 -2.632886 37.776764 0.931965 2.199441 12.369066 -11.342808 3.525708 -0.000049 11.002516 6.990519 -92.005493 29.999104 34.999729 -1.968576 3.536976 -52.797836 62.997868 -18.001196 -0.003769 -0.003271 -11.006244 6.990227 91.999397 -29.999727 34.998676 1.963897 -3.538548 -52.797932 -63.001530 17.998186 -0.002497 -38.471535 36.701862 8.696857 13.361038 9.559121 29.614597 31.233868 -14.929904 -24.358126 -85.681847 -23.596317 27.521851 101.511810 -7.381608 0.271053 23.943972 10.948182 25.684742 
1.246552 7.937199 -0.045055 -48.026028 0.432040 -1.982361 23.081062 0.000000 0.000000 8.896189 3.350707 -2.632886 37.536938 0.895946 2.454062 12.103706 -11.336748 3.518930 -0.000049 11.002517 6.990519 -92.005486 29.999100 34.999729 -1.968575 3.536976 -52.797840 62.997883 -18.001196 -0.003770 -0.003271 -11.006245 6.990227 91.999397 -29.999727 34.998676 1.963897 -3.538548 -52.797935 -63.001530 17.998188 -0.002498 -38.471531 36.701859 8.696856 13.361038 9.559121 29.614597 31.233868 -14.929904 -24.358128 -86.160576 -24.248137 27.317110 101.511810 -7.381608 0.271053 23.943972 10.948182 25.684740 
1.246552 7.937199 -0.045055 -48.026028 0.432040 -1.982361 23.081062 0.000000 0.000000 8.896189 3.350707 -2.632886 37.296799 0.860972 2.708989 11.838254 -11.330713 3.512119 -0.000049 11.002516 6.990519 -92.005486 29.999100 34.999729 -1.968575 3.536976 -52.797840 62.997875 -18.001196 -0.003769 -0.003271 -11.006244 6.990227 91.999397 -29.999727 34.998676 1.963897 -3.538548 -52.797935 -63.001537 17.998188 -0.002497 -38.471539 36.701859 8.696856 13.361038 9.559122 29.614597 31.233871 -14.929904 -24.358130 -86.640442 -24.903177 27.116806 101.511810 -7.381607 0.271053 23.943972 10.948183 25.684742 
1.246552 7.937199 -0.045055 -48.026031 0.432040 -1.982361 23.081064 0.000000 0.000000 8.896189 3.350707 -2.632886 37.056366 0.827046 2.964214 11.572716 -11.324710 3.505279 -0.000049 11.002517 6.990520 -92.005486 29.999100 34.999729 -1.968575 3.536976 -52.797832 62.997875 -18.001196 -0.003769 -0.003271 -11.006245 6.990228 91.999397 -29.999727 34.998676 1.963897 -3.538548 -52.797932 -63.001530 17.998186 -0.002497 -38.471531 36.701862 8.696856 13.361038 9.559121 29.614597 31.233868 -14.929904 -24.358126 -87.121559 -25.561317 26.921040 101.511810 -7.381607 0.271053 23.943974 10.948183 25.684742 
1.246552 7.937199 -0.045055 -48.026028 0.432040 -1.982361 23.081059 0.000000 0.000000 8.896189 3.350707 -2.632886 36.815647 0.794173 3.219728 11.307096 -11.318736 3.498408 -0.000049 11.002516 6.990518 -92.005486 29.999096 34.999725 -1.968575 3.536975 -52.797832 62.997868 -18.001196 -0.003769 -0.003271 -11.006242 6.990227 91.999397 -29.999725 34.998672 1.963897 -3.538548 -52.797932 -63.001522 17.998186 -0.002497 -38.471531 36.701859 8.696857 13.361037 9.559120 29.614597 31.233868 -14.929902 -24.358124 -87.603966 -26.222462 26.729906 101.511810 -7.381607 0.271053 23.943970 10.948181 25.684738 
1.246552 7.937199 -0.045055 -48.026024 0.432040 -1.982361 23.081062 0.000000 0.000000 8.896188 3.350706 -2.632886 36.574627 0.762356 3.475521 11.041397 -11.312794 3.491507 -0.000049 11.002516 6.990518 -92.005486 29.999100 34.999729 -1.968575 3.536975 -52.797832 62.997868 -18.001196 -0.003769 -0.003271 -11.006244 6.990227 91.999397 -29.999727 34.998676 1.963897 -3.538548 -52.797932 -63.001530 17.998184 -0.002497 -38.471531 36.701859 8.696856 13.361038 9.559121 29.614597 31.233868 -14.929902 -24.358124 -88.087761 -26.886494 26.543507 101.511810 -7.381607 0.271053 23.943972 10.948181 25.684738 
1.246552 7.937199 -0.045055 -48.026024 0.432040 -1.982361 23.081062 0.000000 0.000000 8.896189 3.350707 -2.632886 36.333351 0.731598 3.731586 10.775615 -11.306875 3.484575 -0.000049 11.002516 6.990519 -92.005470 29.999096 34.999725 -1.968575 3.536975 -52.797832 62.997868 -18.001196 -0.003769 -0.003271 -11.006244 6.990227 91.999397 -29.999727 34.998676 1.963897 -3.538548 -52.797932 -63.001522 17.998186 -0.002496 -38.471531 36.701859 8.696857 13.361038 9.559121 29.614597 31.233864 -14.929902 -24.358126 -88.573029 -27.553303 26.361950 101.511810 -7.381607 0.271053 23.943972 10.948181 25.684740 
1.246552 7.937199 -0.045055 -48.026028 0.432040 -1.982361 23.081060 0.000000 0.000000 8.896188 3.350707 -2.632885 36.091824 0.701904 3.987914 10.509761 -11.300988 3.477613 -0.000049 11.002516 6.990519 -92.005486 29.999100 34.999729 -1.968575 3.536976 -52.797832 62.997868 -18.001194 -0.003770 -0.003271 -11.006244 6.990227 91.999397 -29.999727 34.998676 1.963897 -3.538548 -52.797932 -63.001530 17.998186 -0.002498 -38.471531 36.701859 8.696856 13.361037 9.559122 29.614597 31.233868 -14.929904 -24.358126 -89.059853 -28.222782 26.185350 101.511803 -7.381607 0.271053 23.943972 10.948182 25.684740 
1.246552 7.937199 -0.045055 -48.026028 0.432040 -1.982361 23.081062 0.000000 0.000000 8.896189 3.350707 -2.632886 35.850033 0.673277 4.244495 10.243835 -11.295135 3.470623 -0.000049 11.002516 6.990518 -92.005486 29.999100 34.999729 -1.968575 3.536976 -52.797832 62.997868 -18.001196 -0.003769 -0.003271 -11.006244 6.990227 91.999397 -29.999727 34.998676 1.963897 -3.538548 -52.797932 -63.001530 17.998186 -0.002497 -38.471531 36.701859 8.696855 13.361038 9.559121 29.614597 31.233868 -14.929904 -24.358126 -89.548325 -28.894794 26.013803 101.511810 -7.381607 0.271053 23.943972 10.948182 25.684740 
1.246552 7.937199 -0.045055 -48.026028 0.432040 -1.982361 23.081062 0.000000 0.000000 8.896189 3.350707 -2.632886 35.607998 0.645719 4.501320 9.977839 -11.289310 3.463603 -0.000049 11.002516 6.990519 -92.005486 29.999100 34.999729 -1.968575 3.536976 -52.797832 62.997868 -18.001196 -0.003769 -0.003271 -11.006244 6.990227 91.999397 -29.999727 34.998676 1.963897 -3.538548 -52.797932 -63.001530 17.998186 -0.002497 -38.471531 36.701859 8.696856 13.361038 9.559121 29.614597 31.233868 -14.929904 -24.358126 -90.038559 -29.569242 25.847446 101.511810 -7.381607 0.271053 23.943972 10.948182 25.684740 
